# xmcd CD database file
#
# Track frame offsets:
#	182
#	41495
#	63592
#	97322
#	142410
#	168510
#	179247
#	200235
#	213850
#	232382
#
# Disc length: 3555 seconds
#
# Revision: 1
# Processed by: cddbd v1.5.2PL0 Copyright (c) Steve Scherf et al.
# Submitted via: CDex 1.77
#
DISCID=ae0de10a
DTITLE=Quartetto di Lucca - Quartetto
DYEAR=1964
DGENRE=Jazz
TTITLE0=Quartetto 
TTITLE1=Soft Winds 
TTITLE2=Night In Tunisia 
TTITLE3=Estate '61 
TTITLE4=Gabry
TTITLE5=Blues for Carole n. 2
TTITLE6=Like someone in love
TTITLE7=Lullaby of Birdland
TTITLE8=West Blues
TTITLE9=Estate '58
EXTD=YEAR: 1964
EXTT0=
EXTT1=
EXTT2=
EXTT3=
EXTT4=
EXTT5=
EXTT6=
EXTT7=
EXTT8=
EXTT9=
PLAYORDER=
